<?xml version="1.0" standalone="no"?><!DOCTYPE svg PUBLIC "-//W3C//DTD SVG 1.1//EN" "http://www.w3.org/Graphics/SVG/1.1/DTD/svg11.dtd"><svg t="1544695731745" class="icon" style="" viewBox="0 0 1448 1024" version="1.1" xmlns="http://www.w3.org/2000/svg" p-id="5618" xmlns:xlink="http://www.w3.org/1999/xlink" width="90.5" height="64"><defs><style type="text/css"></style></defs><path d="M176.680851 729.87234C142.978723 729.87234 115.744681 700.425532 115.744681 664.510638s27.234043-65.361702 60.93617-65.361702h694.978723c33.702128 0 60.93617 29.446809 60.936171 65.361702s-27.234043 65.361702-60.936171 65.361702H176.680851zM176.680851 424.851064C142.978723 424.851064 115.744681 395.404255 115.744681 359.489362s27.234043-65.361702 60.93617-65.361702h694.978723c33.702128 0 60.93617 29.446809 60.936171 65.361702s-27.234043 65.361702-60.936171 65.361702H176.680851zM181.106383 130.723404c-37.106383 0-66.553191-30.468085-65.361702-67.574468 1.021277-35.914894 32.680851-63.148936 68.595745-63.148936h1064.340425c36.93617 0 66.382979 30.468085 65.361702 67.574468-1.021277 35.914894-32.680851 63.148936-68.595744 63.148936H181.106383zM982.12766 531.914894L1234.212766 693.446809c15.489362 9.87234 35.744681-1.191489 35.744681-19.574469V351.148936c0-18.382979-20.255319-29.446809-35.744681-19.574468L982.12766 492.93617c-14.297872 9.021277-14.297872 29.957447 0 38.978724zM1248.680851 893.276596c36.93617 0 66.382979 30.468085 65.361702 67.574468-1.021277 35.914894-32.680851 63.148936-68.595744 63.148936H181.106383c-37.106383 0-66.382979-30.468085-65.361702-67.574468 1.021277-35.914894 32.680851-63.148936 68.595745-63.148936h1064.340425z" fill="" p-id="5619"></path></svg>