<?xml version="1.0" standalone="no"?><!DOCTYPE svg PUBLIC "-//W3C//DTD SVG 1.1//EN" "http://www.w3.org/Graphics/SVG/1.1/DTD/svg11.dtd"><svg t="1544695722812" class="icon" style="" viewBox="0 0 1339 1024" version="1.1" xmlns="http://www.w3.org/2000/svg" p-id="5494" xmlns:xlink="http://www.w3.org/1999/xlink" width="83.6875" height="64"><defs><style type="text/css"></style></defs><path d="M1333.405538 518.852923L1047.630769 732.002462a14.729846 14.729846 0 0 1-15.202461 1.339076 14.336 14.336 0 0 1-7.955693-12.839384V294.203077a14.336 14.336 0 0 1 14.493539-14.336c3.072 0 6.144 1.024 8.664615 2.914461l285.774769 213.07077a14.729846 14.729846 0 0 1 5.750154 11.500307 14.493538 14.493538 0 0 1-5.750154 11.500308zM997.376 150.449231H75.697231A75.539692 75.539692 0 0 1 0 75.224615C0 33.713231 33.949538 0 75.697231 0h921.678769c41.826462 0 75.776 33.713231 75.776 75.224615a75.539692 75.539692 0 0 1-75.776 75.224616zM75.697231 432.128h645.277538c41.668923 0 75.618462 33.713231 75.618462 75.224615a75.539692 75.539692 0 0 1-75.618462 75.224616H75.697231A75.539692 75.539692 0 0 1 0 507.352615c0-41.511385 33.949538-75.224615 75.697231-75.224615z m0 441.422769h921.678769c41.826462 0 75.776 33.713231 75.776 75.224616a75.618462 75.618462 0 0 1-75.776 75.224615H75.697231A75.618462 75.618462 0 0 1 0 948.775385c0-41.511385 33.949538-75.224615 75.697231-75.224616z" p-id="5495"></path></svg>