<?xml version="1.0" standalone="no"?><!DOCTYPE svg PUBLIC "-//W3C//DTD SVG 1.1//EN" "http://www.w3.org/Graphics/SVG/1.1/DTD/svg11.dtd"><svg t="1545718590081" class="icon" style="" viewBox="0 0 1024 1024" version="1.1" xmlns="http://www.w3.org/2000/svg" p-id="6273" xmlns:xlink="http://www.w3.org/1999/xlink" width="64" height="64"><defs><style type="text/css"></style></defs><path d="M569.6 362.667v275.2c0 17.066 12.8 29.866 29.867 29.866 8.533 0 17.066-4.266 21.333-8.533 4.267-4.267 8.533-12.8 8.533-21.333v-275.2c0-17.067-12.8-29.867-29.866-29.867-14.934 0-29.867 12.8-29.867 29.867z" fill="#F15533" p-id="6274"></path><path d="M938.667 584.533c4.266-23.466 6.4-49.066 6.4-72.533 0-119.467-46.934-230.4-130.134-313.6C729.6 113.067 618.667 66.133 499.2 66.133c-119.467 0-230.4 46.934-315.733 130.134S53.333 390.4 53.333 509.867c0 61.866 12.8 119.466 34.134 174.933 21.333 51.2 53.333 100.267 96 142.933C268.8 913.067 379.733 957.867 499.2 957.867c55.467 0 110.933-10.667 162.133-29.867l17.067-6.4-23.467-61.867L640 864c-44.8 17.067-93.867 25.6-138.667 25.6-209.066 0-377.6-168.533-377.6-377.6s168.534-379.733 377.6-379.733c209.067 0 377.6 168.533 377.6 377.6 0 17.066-2.133 34.133-4.266 51.2-46.934 4.266-85.334 42.666-85.334 89.6 0 51.2 40.534 89.6 89.6 89.6 51.2 0 89.6-40.534 89.6-89.6 2.134-23.467-10.666-51.2-29.866-66.134z" fill="#F15533" p-id="6275"></path><path d="M704 411.733c-17.067 0-29.867 12.8-29.867 29.867v115.2c0 17.067 12.8 29.867 29.867 29.867 8.533 0 14.933-4.267 21.333-8.534 6.4-4.266 8.534-12.8 8.534-21.333V441.6c0-17.067-14.934-29.867-29.867-29.867zM264.533 441.6v115.2c0 17.067 12.8 29.867 29.867 29.867 8.533 0 14.933-4.267 21.333-8.534 4.267-4.266 8.534-12.8 8.534-21.333V441.6c0-17.067-12.8-29.867-29.867-29.867s-29.867 12.8-29.867 29.867z m204.8-160v433.067c0 17.066 12.8 29.866 29.867 29.866s29.867-12.8 29.867-29.866V281.6c0-17.067-12.8-29.867-29.867-29.867-17.067 2.134-29.867 14.934-29.867 29.867z m-102.4 81.067v275.2c0 17.066 12.8 29.866 29.867 29.866s29.867-12.8 29.867-29.866v-275.2c0-17.067-12.8-29.867-29.867-29.867s-29.867 12.8-29.867 29.867z" fill="#F15533" p-id="6276"></path></svg>